<svg width="14" height="16" viewBox="0 0 14 16" fill="none" xmlns="http://www.w3.org/2000/svg">
<path d="M9.66683 5.99998V3.99998C9.66683 2.52722 8.47292 1.33331 7.00017 1.33331C5.52741 1.33331 4.3335 2.52722 4.3335 3.99998V5.99998M1.39483 6.90129L0.994834 11.168C0.881102 12.3811 0.824237 12.9877 1.02553 13.4562C1.20236 13.8677 1.51224 14.208 1.90551 14.4225C2.35318 14.6666 2.96241 14.6666 4.18086 14.6666H9.81947C11.0379 14.6666 11.6471 14.6666 12.0948 14.4225C12.4881 14.208 12.798 13.8677 12.9748 13.4562C13.1761 12.9877 13.1192 12.3811 13.0055 11.168L12.6055 6.90129C12.5095 5.87688 12.4614 5.36467 12.2311 4.97742C12.0282 4.63637 11.7284 4.36339 11.3699 4.19321C10.9628 3.99998 10.4484 3.99998 9.41947 3.99998L4.58086 3.99998C3.55196 3.99998 3.03751 3.99998 2.63044 4.19321C2.27194 4.36339 1.97217 4.63637 1.76927 4.97742C1.53889 5.36467 1.49087 5.87688 1.39483 6.90129Z" stroke="white" stroke-width="1.5" stroke-linecap="round" stroke-linejoin="round"/>
</svg>
