<svg width="16" height="16" viewBox="0 0 16 16" fill="none" xmlns="http://www.w3.org/2000/svg">
<path d="M3.33334 9.33331H12.0905C12.7657 9.33331 13.1033 9.33331 13.3721 9.20743C13.6088 9.09653 13.8078 8.91848 13.9441 8.69542C14.0989 8.4422 14.1362 8.10665 14.2108 7.43557L14.6008 3.92554C14.6236 3.72057 14.6349 3.61808 14.602 3.53875C14.573 3.46908 14.5213 3.41129 14.4553 3.37483C14.3801 3.33331 14.2769 3.33331 14.0707 3.33331H3.00001M1.33325 1.33331H2.16554C2.34196 1.33331 2.43017 1.33331 2.49918 1.36686C2.55993 1.3964 2.61028 1.4437 2.64354 1.50249C2.68133 1.56927 2.68683 1.65731 2.69784 1.83338L3.302 11.4999C3.313 11.676 3.3185 11.764 3.35629 11.8308C3.38956 11.8896 3.43991 11.9369 3.50066 11.9664C3.56967 12 3.65788 12 3.83429 12H12.6666M4.99992 14.3333H5.00659M10.9999 14.3333H11.0066M5.33325 14.3333C5.33325 14.5174 5.18401 14.6666 4.99992 14.6666C4.81582 14.6666 4.66659 14.5174 4.66659 14.3333C4.66659 14.1492 4.81582 14 4.99992 14C5.18401 14 5.33325 14.1492 5.33325 14.3333ZM11.3333 14.3333C11.3333 14.5174 11.184 14.6666 10.9999 14.6666C10.8158 14.6666 10.6666 14.5174 10.6666 14.3333C10.6666 14.1492 10.8158 14 10.9999 14C11.184 14 11.3333 14.1492 11.3333 14.3333Z" stroke="white" stroke-width="1.5" stroke-linecap="round" stroke-linejoin="round"/>
</svg>
