<svg width="15" height="14" viewBox="0 0 15 14" fill="none" xmlns="http://www.w3.org/2000/svg">
<path d="M6.99983 5.00149C7.1173 4.66757 7.34915 4.386 7.65432 4.20665C7.95949 4.0273 8.3183 3.96174 8.66718 4.02158C9.01606 4.08142 9.3325 4.2628 9.56046 4.5336C9.78842 4.8044 9.91319 5.14714 9.91266 5.50112C9.91266 6.50037 8.41378 7 8.41378 7M8.4331 9H8.43977M8.33316 12.3333C11.4628 12.3333 13.9998 9.79628 13.9998 6.66667C13.9998 3.53705 11.4628 1 8.33316 1C5.20355 1 2.6665 3.53705 2.6665 6.66667C2.6665 7.3 2.7704 7.90906 2.96208 8.47774C3.03421 8.69175 3.07028 8.79875 3.07678 8.88095C3.08321 8.96213 3.07835 9.01905 3.05827 9.09797C3.03793 9.17788 2.99303 9.26099 2.90323 9.42721L1.81279 11.4456C1.65725 11.7335 1.57948 11.8774 1.59688 11.9885C1.61204 12.0853 1.669 12.1705 1.75261 12.2215C1.84862 12.2801 2.01136 12.2632 2.33686 12.2296L5.75087 11.8767C5.85426 11.866 5.90595 11.8606 5.95307 11.8624C5.99941 11.8642 6.03213 11.8686 6.07732 11.879C6.12327 11.8896 6.18104 11.9118 6.2966 11.9564C6.92864 12.1999 7.61531 12.3333 8.33316 12.3333Z" stroke="white" stroke-width="1.5" stroke-linecap="round" stroke-linejoin="round"/>
</svg>
