<svg width="149" height="15" viewBox="0 0 149 15" fill="none" xmlns="http://www.w3.org/2000/svg">
<path d="M8.23935 4.67401C8.18821 4.15838 7.96875 3.75781 7.58097 3.4723C7.19318 3.18679 6.6669 3.04403 6.00213 3.04403C5.55043 3.04403 5.16903 3.10795 4.85795 3.2358C4.54688 3.35938 4.30824 3.53196 4.14205 3.75355C3.98011 3.97514 3.89915 4.22656 3.89915 4.50781C3.89063 4.74219 3.93963 4.94673 4.04616 5.12145C4.15696 5.29616 4.30824 5.44744 4.5 5.57528C4.69176 5.69886 4.91335 5.80753 5.16477 5.90128C5.41619 5.99077 5.68466 6.06747 5.97017 6.13139L7.14631 6.41264C7.71733 6.54048 8.24148 6.71094 8.71875 6.92401C9.19602 7.13707 9.60938 7.39915 9.95881 7.71023C10.3082 8.02131 10.5788 8.38778 10.7706 8.80966C10.9666 9.23153 11.0668 9.7152 11.071 10.2607C11.0668 11.0618 10.8622 11.7564 10.4574 12.3445C10.0568 12.9283 9.47727 13.3821 8.71875 13.706C7.96449 14.0256 7.05469 14.1854 5.98935 14.1854C4.93253 14.1854 4.01207 14.0234 3.22798 13.6996C2.44815 13.3757 1.83878 12.8963 1.39986 12.2614C0.965199 11.6222 0.737216 10.8317 0.715909 9.88991H3.39418C3.42401 10.3288 3.54972 10.6953 3.77131 10.9893C3.99716 11.2791 4.29759 11.4986 4.67259 11.6477C5.05185 11.7926 5.48011 11.8651 5.95739 11.8651C6.42614 11.8651 6.8331 11.7969 7.17827 11.6605C7.5277 11.5241 7.7983 11.3345 7.99006 11.0916C8.18182 10.8487 8.2777 10.5696 8.2777 10.2543C8.2777 9.96023 8.19034 9.71307 8.01562 9.51278C7.84517 9.3125 7.59375 9.14205 7.26136 9.00142C6.93324 8.8608 6.53054 8.73295 6.05327 8.6179L4.62784 8.25994C3.52415 7.99148 2.6527 7.57173 2.01349 7.00071C1.37429 6.42969 1.05682 5.66051 1.06108 4.69318C1.05682 3.90057 1.26776 3.2081 1.69389 2.61577C2.12429 2.02344 2.71449 1.56108 3.46449 1.22869C4.21449 0.896306 5.06676 0.730113 6.02131 0.730113C6.9929 0.730113 7.84091 0.896306 8.56534 1.22869C9.29403 1.56108 9.8608 2.02344 10.2656 2.61577C10.6705 3.2081 10.8793 3.89418 10.892 4.67401H8.23935ZM24.4527 14V0.909091H27.2205V6.31037H32.8391V0.909091H35.6004V14H32.8391V8.59233H27.2205V14H24.4527ZM57.4883 0.909091H60.2561V9.41051C60.2561 10.3651 60.0281 11.2003 59.5721 11.9162C59.1204 12.6321 58.4876 13.1903 57.6737 13.5909C56.8598 13.9872 55.9116 14.1854 54.8292 14.1854C53.7426 14.1854 52.7923 13.9872 51.9784 13.5909C51.1645 13.1903 50.5317 12.6321 50.08 11.9162C49.6282 11.2003 49.4024 10.3651 49.4024 9.41051V0.909091H52.1702V9.17401C52.1702 9.67259 52.2788 10.1158 52.4961 10.5036C52.7177 10.8913 53.0288 11.196 53.4294 11.4176C53.83 11.6392 54.2966 11.75 54.8292 11.75C55.3662 11.75 55.8328 11.6392 56.2291 11.4176C56.6297 11.196 56.9386 10.8913 57.1559 10.5036C57.3775 10.1158 57.4883 9.67259 57.4883 9.17401V0.909091ZM74.0533 14V0.909091H82.7209V3.19105H76.821V6.31037H82.1456V8.59233H76.821V14H74.0533ZM96.1026 14V0.909091H104.77V3.19105H98.8703V6.31037H104.195V8.59233H98.8703V14H96.1026ZM118.152 14V0.909091H120.92V11.718H126.532V14H118.152ZM139.885 14V0.909091H148.706V3.19105H142.652V6.31037H148.252V8.59233H142.652V11.718H148.731V14H139.885Z" fill="white"/>
</svg>
